<svg width="165" height="24" viewBox="0 0 165 24" fill="none" xmlns="http://www.w3.org/2000/svg">
<path d="M68.5481 21.8277L68.3947 23.5272H64.7064V1.79592H68.675V11.3384C69.6794 9.9592 71.1169 9.26845 72.9889 9.26845C74.7244 9.26845 76.1027 9.81795 77.1234 10.9169C78.3059 12.1774 78.8976 13.9831 78.8976 16.3346C78.8976 18.7195 78.3571 20.5974 77.2766 21.9682C76.222 23.3226 74.6901 23.9997 72.6824 23.9997C70.7937 23.9997 69.4157 23.2767 68.5481 21.8277ZM71.6998 12.2711C70.6281 12.2711 69.8112 12.7354 69.2494 13.6639C68.8161 14.3878 68.5993 15.4019 68.5993 16.7048C68.5993 18.0332 68.8713 19.0807 69.4157 19.8473C69.9602 20.6227 70.7342 21.0107 71.7378 21.0107C72.6145 21.0107 73.3248 20.6953 73.8693 20.0644C74.5242 19.2987 74.8521 18.1615 74.8521 16.6538C74.8521 15.0867 74.4899 13.9026 73.7673 13.1017C73.257 12.5485 72.5672 12.2711 71.6998 12.2711Z" fill="white"/>
<path d="M80.9651 23.527V9.71598H84.7299L84.9342 12.1436C85.1979 11.5134 85.4828 11.0149 85.7889 10.6487C86.4014 9.91615 87.2563 9.54967 88.3545 9.54967C88.771 9.54967 89.2599 9.60534 89.8215 9.71598L89.4902 13.0375C88.8429 12.9522 88.3496 12.9095 88.0095 12.9095C87.0476 12.9095 86.2912 13.2586 85.7379 13.9577C85.2023 14.6308 84.9342 15.554 84.9342 16.7299V23.527H80.9651Z" fill="white"/>
<path d="M100.042 14.6092V14.0092C100.042 12.7144 99.2681 12.0668 97.7198 12.0668C96.8348 12.0668 96.1585 12.2839 95.691 12.7188C95.4355 12.9659 95.2061 13.3143 95.0017 13.7663L91.6327 12.8459C91.8792 11.9685 92.3935 11.2239 93.1771 10.6104C94.3338 9.69953 95.9292 9.24351 97.9621 9.24351C100.14 9.24351 101.706 9.69002 102.659 10.5853C103.493 11.3603 103.909 12.5098 103.909 14.0342V20.5504C103.909 21.6492 104.092 22.6415 104.458 23.5273H100.821C100.66 22.9994 100.566 22.5266 100.54 22.1096C99.7915 22.7904 99.1108 23.2633 98.498 23.5273C97.7583 23.8423 96.8473 24 95.7679 24C94.3809 24 93.2702 23.6556 92.4366 22.965C91.5349 22.2156 91.0836 21.1558 91.0836 19.7841C91.0836 18.1481 91.6746 16.9563 92.8573 16.2067C93.5723 15.7463 94.6779 15.4064 96.1754 15.1842L100.042 14.6092ZM100.042 17.1138L97.2476 17.5353C95.6827 17.7737 94.8998 18.4768 94.8998 19.643C94.8998 20.1376 95.0532 20.5298 95.3592 20.8188C95.6993 21.1421 96.1794 21.304 96.8017 21.304C97.6686 21.304 98.4134 21.0869 99.0343 20.6529C99.7062 20.1844 100.042 19.5368 100.042 18.7106V17.1138Z" fill="white"/>
<path d="M110.558 23.527L105.619 9.71598H109.856L112.855 19.8098L115.866 9.71598H119.963L115.049 23.527H110.558Z" fill="white"/>
<path d="M122.235 23.527H126.217V9.71598H122.235V23.527Z" fill="white"/>
<path d="M128.565 9.71589H132.534V18.2125C132.534 19.0637 132.687 19.6854 132.993 20.0781C133.35 20.5461 133.92 20.7802 134.703 20.7802C135.69 20.7802 136.447 20.3845 136.975 19.5917C137.434 18.8935 137.664 17.9569 137.664 16.7813V9.71589H141.633V23.5269H137.817L137.638 21.5595C136.694 23.1869 135.235 23.9997 133.261 23.9997C131.593 23.9997 130.36 23.4852 129.56 22.4546C128.897 21.6022 128.565 20.4951 128.565 19.1319V9.71589Z" fill="white"/>
<path d="M144.352 23.527V9.71598H148.142L148.346 11.6709C149.24 10.0518 150.6 9.24326 152.43 9.24326C154.345 9.24326 155.616 10.0862 156.245 11.7729C157.224 10.0862 158.696 9.24326 160.662 9.24326C163.553 9.24326 165 10.9082 165 14.2383V23.527H161.032V14.8906C161.032 13.2212 160.401 12.3857 159.142 12.3857C158.377 12.3857 157.786 12.7058 157.369 13.3444C156.901 14.0604 156.667 15.0991 156.667 16.4616V23.527H152.685V14.8906C152.685 13.2212 152.06 12.3857 150.809 12.3857C150.052 12.3857 149.461 12.7058 149.035 13.3444C148.559 14.0518 148.321 15.0907 148.321 16.4616V23.527H144.352Z" fill="white"/>
<path d="M53.2365 14.1272C50.7119 11.6006 47.3565 10.2093 43.7865 10.2093C42.8306 10.2093 41.8909 10.3123 40.9779 10.5069C40.5692 7.92321 39.3652 5.54108 37.4821 3.65624C35.1268 1.29892 31.9962 0 28.6653 0C25.3343 0 22.2036 1.29892 19.8486 3.65624L0 23.5277H10.3224L25.0092 8.82318C25.4883 8.34111 26.0581 7.95891 26.6857 7.69869C27.3132 7.43847 27.9861 7.30539 28.6653 7.30715C30.0461 7.30715 31.3447 7.84621 32.3212 8.82434C32.8029 9.30371 33.1848 9.87398 33.4448 10.5021C33.7048 11.1303 33.8378 11.8039 33.8359 12.4838C33.8359 13.8656 33.2975 15.1654 32.321 16.1433L24.9453 23.5277H35.2693L39.4968 19.2951C40.6419 18.1478 42.1659 17.5169 43.7865 17.5169C45.4069 17.5169 46.9302 18.1478 48.0756 19.2951C49.2066 20.4275 49.8336 21.9282 49.8498 23.5277H57.1502C57.1335 19.9765 55.7465 16.6402 53.2365 14.1272Z" fill="white"/>
</svg>
